<?xml version="1.0" encoding="iso-8859-1"?>
<!-- Generator: Adobe Illustrator 18.0.0, SVG Export Plug-In . SVG Version: 6.00 Build 0)  -->
<!DOCTYPE svg PUBLIC "-//W3C//DTD SVG 1.1//EN" "http://www.w3.org/Graphics/SVG/1.1/DTD/svg11.dtd">
<svg version="1.1" id="Capa_1" xmlns="http://www.w3.org/2000/svg" xmlns:xlink="http://www.w3.org/1999/xlink" x="0px" y="0px"
	 viewBox="0 0 436 436" style="enable-background:new 0 0 436 436;" xml:space="preserve">
		<style>
		path{fill: #fff };
	</style>
<g>
	<path d="M317.862,258.827c0.82-8.715,1.244-17.598,1.244-26.586c0-45.212-10.462-101.641-27.303-147.266
		C265.879,14.742,237.36,0,218,0s-47.879,14.742-73.803,84.975c-16.841,45.625-27.303,102.054-27.303,147.266
		c0,8.989,0.425,17.871,1.244,26.586c-35.982,6.185-63.729,43.352-63.729,88.142c0,23.177,7.364,45.111,20.736,61.763
		c13.828,17.22,32.459,26.903,52.461,27.267c0.061,0.001,0.121,0.001,0.182,0.001c3.002,0,5.849-1.349,7.749-3.68
		c1.939-2.377,2.68-5.514,2.009-8.508c-2.241-9.998-1.898-25.37,6.445-35.792c5.143-6.423,12.717-10.05,22.544-10.82
		c12.536,12.198,26.609,19.727,41.465,22.061V426c0,5.523,4.478,10,10,10s10-4.477,10-10v-26.738
		c14.856-2.333,28.929-9.863,41.465-22.061c9.827,0.77,17.401,4.397,22.544,10.82c8.344,10.422,8.687,25.794,6.445,35.791
		c-0.671,2.994,0.069,6.131,2.009,8.508c1.9,2.331,4.747,3.68,7.749,3.68c0.061,0,0.121,0,0.182-0.001
		c20.002-0.363,38.633-10.046,52.461-27.266c13.371-16.651,20.735-38.585,20.735-61.763
		C381.59,302.179,353.844,265.012,317.862,258.827z M218,20c17.072,0,36.637,24.607,52.85,66.15
		C256.778,99.872,237.744,107.67,218,107.67s-38.777-7.799-52.85-21.521C181.363,44.607,200.929,20,218,20z M128.379,375.521
		c-9.167,11.45-12.24,25.882-11.997,38.666c-23.98-7.183-41.973-34.745-41.973-67.218c0-34.623,20.156-63.368,46.337-68.298
		c4.448,26.17,12.659,50.215,24.172,70.157c2.215,3.837,4.527,7.464,6.92,10.895C140.4,363.278,132.98,369.774,128.379,375.521z
		 M228,378.886V288.4c0-5.523-4.478-10-10-10s-10,4.477-10,10v90.486c-16.95-3.935-32.917-17.81-45.761-40.058
		c-16.344-28.31-25.345-66.163-25.345-106.587c0-38.331,7.938-85.209,21.046-125.789C174.84,120.06,196.074,127.67,218,127.67
		s43.161-7.61,60.06-21.219c13.108,40.58,21.046,87.458,21.046,125.789c0,40.424-9.001,78.278-25.345,106.587
		C260.917,361.076,244.95,374.951,228,378.886z M319.619,414.187c0.243-12.784-2.83-27.215-11.997-38.666
		c-4.601-5.747-12.02-12.243-23.459-15.798c2.393-3.431,4.705-7.058,6.92-10.895c11.513-19.942,19.724-43.987,24.172-70.157
		c26.18,4.93,46.336,33.676,46.336,68.298C361.59,379.442,343.599,407.004,319.619,414.187z"/>
	<path d="M218,158.17c-24.896,0-45.149,20.254-45.149,45.149c0,24.896,20.254,45.149,45.149,45.149s45.149-20.254,45.149-45.149
		C263.15,178.424,242.896,158.17,218,158.17z M218,228.469c-13.867,0-25.149-11.282-25.149-25.149
		c0-13.867,11.282-25.149,25.149-25.149s25.149,11.282,25.149,25.149C243.15,217.187,231.868,228.469,218,228.469z"/>
</g>
<g>
</g>
<g>
</g>
<g>
</g>
<g>
</g>
<g>
</g>
<g>
</g>
<g>
</g>
<g>
</g>
<g>
</g>
<g>
</g>
<g>
</g>
<g>
</g>
<g>
</g>
<g>
</g>
<g>
</g>
</svg>
