<?xml version="1.0" encoding="iso-8859-1"?>
<!-- Generator: Adobe Illustrator 18.0.0, SVG Export Plug-In . SVG Version: 6.00 Build 0)  -->
<!DOCTYPE svg PUBLIC "-//W3C//DTD SVG 1.1//EN" "http://www.w3.org/Graphics/SVG/1.1/DTD/svg11.dtd">
<svg version="1.1" id="Capa_1" xmlns="http://www.w3.org/2000/svg" xmlns:xlink="http://www.w3.org/1999/xlink" x="0px" y="0px"
	 viewBox="0 0 450.493 450.493" style="enable-background:new 0 0 450.493 450.493;" xml:space="preserve">
		<style>
		path{fill: #fff };
	</style>
<path d="M353.191,372.884h-17.686v-37.397c0-5.523-4.478-10-10-10h-24.971L283.61,127.998h12.218c5.522,0,10-4.477,10-10V89h12.852
	c5.522,0,10-4.477,10-10V10c0-5.523-4.478-10-10-10h-36.877c-5.522,0-10,4.477-10,10v20.771h-9.19V10c0-5.523-4.478-10-10-10
	h-54.724c-5.522,0-10,4.477-10,10v20.771h-9.189V10c0-5.523-4.478-10-10-10h-36.886c-5.522,0-10,4.477-10,10v69
	c0,5.523,4.478,10,10,10h12.852v28.998c0,5.523,4.478,10,10,10h12.218l-16.924,197.489h-24.972c-5.522,0-10,4.477-10,10v37.397
	H97.302c-5.522,0-10,4.477-10,10v57.609c0,5.523,4.478,10,10,10h255.89c5.522,0,10-4.477,10-10v-57.609
	C363.191,377.361,358.714,372.884,353.191,372.884z M141.813,20h16.886v20.771c0,5.523,4.478,10,10,10h29.189
	c5.522,0,10-4.477,10-10V20h34.724v20.771c0,5.523,4.478,10,10,10h29.19c5.522,0,10-4.477,10-10V20h16.877v49H141.813V20z
	 M164.665,89h121.163v18.998H164.665V89z M186.957,127.998h76.579l16.925,197.489H170.033L186.957,127.998z M134.987,345.487
	h180.519v27.397H134.987V345.487z M343.191,430.493h-235.89v-37.609h235.89V430.493z"/>
<g>
</g>
<g>
</g>
<g>
</g>
<g>
</g>
<g>
</g>
<g>
</g>
<g>
</g>
<g>
</g>
<g>
</g>
<g>
</g>
<g>
</g>
<g>
</g>
<g>
</g>
<g>
</g>
<g>
</g>
</svg>
