<?xml version="1.0" encoding="iso-8859-1"?>
<!-- Generator: Adobe Illustrator 18.0.0, SVG Export Plug-In . SVG Version: 6.00 Build 0)  -->
<!DOCTYPE svg PUBLIC "-//W3C//DTD SVG 1.1//EN" "http://www.w3.org/Graphics/SVG/1.1/DTD/svg11.dtd">
<svg version="1.1" id="Capa_1" xmlns="http://www.w3.org/2000/svg" xmlns:xlink="http://www.w3.org/1999/xlink" x="0px" y="0px"
	 viewBox="0 0 421 421" style="enable-background:new 0 0 421 421;" xml:space="preserve">
		<style>
		path{fill: #fff };
	</style>
<g>
	<path d="M10,103h48v6H48c-5.522,0-10,4.477-10,10s4.478,10,10,10h40c5.522,0,10-4.477,10-10s-4.478-10-10-10H78v-6h46
		c5.522,0,10-4.477,10-10V19c0-5.523-4.478-10-10-10H10C4.478,9,0,13.477,0,19v74C0,98.523,4.478,103,10,103z M20,29h94v54H20V29z"
		/>
	<path d="M411,9H297c-5.522,0-10,4.477-10,10v74c0,5.523,4.478,10,10,10h48v6h-10c-5.522,0-10,4.477-10,10s4.478,10,10,10h40
		c5.522,0,10-4.477,10-10s-4.478-10-10-10h-10v-6h46c5.522,0,10-4.477,10-10V19C421,13.477,416.522,9,411,9z M401,83h-94V29h94V83z"
		/>
	<path d="M124,292H10c-5.522,0-10,4.477-10,10v74c0,5.523,4.478,10,10,10h48v6H48c-5.522,0-10,4.477-10,10s4.478,10,10,10h40
		c5.522,0,10-4.477,10-10s-4.478-10-10-10H78v-6h46c5.522,0,10-4.477,10-10v-74C134,296.477,129.522,292,124,292z M114,366H20v-54
		h94V366z"/>
	<path d="M411,292H297c-5.522,0-10,4.477-10,10v74c0,5.523,4.478,10,10,10h48v6h-10c-5.522,0-10,4.477-10,10s4.478,10,10,10h40
		c5.522,0,10-4.477,10-10s-4.478-10-10-10h-10v-6h46c5.522,0,10-4.477,10-10v-74C421,296.477,416.522,292,411,292z M401,366h-94v-54
		h94V366z"/>
	<path d="M93.515,201.731c0,64.506,52.479,116.985,116.985,116.985s116.985-52.479,116.985-116.985S275.006,84.746,210.5,84.746
		S93.515,137.225,93.515,201.731z M307.485,201.731c0,53.478-43.508,96.985-96.985,96.985s-96.985-43.508-96.985-96.985
		s43.508-96.985,96.985-96.985S307.485,148.253,307.485,201.731z"/>
	<path d="M266.551,354.065c-17.922,6.593-36.779,9.935-56.048,9.935s-38.126-3.343-56.048-9.935
		c-5.183-1.907-10.932,0.75-12.837,5.933c-1.907,5.183,0.749,10.931,5.933,12.838C167.69,380.244,188.87,384,210.503,384
		s42.813-3.756,62.952-11.165c5.184-1.907,7.84-7.654,5.933-12.838C277.481,354.814,271.734,352.159,266.551,354.065z"/>
	<path d="M154.455,49.395c17.922-6.593,36.779-9.935,56.048-9.935s38.126,3.343,56.048,9.935c1.139,0.419,2.305,0.617,3.451,0.617
		c4.072,0,7.898-2.506,9.386-6.55c1.907-5.183-0.749-10.931-5.933-12.838c-20.14-7.408-41.319-11.165-62.952-11.165
		s-42.813,3.756-62.952,11.165c-5.184,1.907-7.84,7.654-5.933,12.838C143.523,48.646,149.271,51.301,154.455,49.395z"/>
	<path d="M52.235,132.845c-5.183-1.908-10.931,0.75-12.837,5.933c-7.408,20.138-11.165,41.319-11.165,62.952
		s3.757,42.814,11.165,62.952c1.487,4.045,5.313,6.55,9.386,6.55c1.146,0,2.313-0.199,3.451-0.618
		c5.184-1.907,7.84-7.654,5.933-12.837c-6.592-17.92-9.935-36.778-9.935-56.048s3.343-38.127,9.935-56.048
		C60.075,140.499,57.419,134.752,52.235,132.845z"/>
	<path d="M368.771,270.615c1.139,0.419,2.305,0.618,3.451,0.618c4.072,0,7.898-2.506,9.386-6.55
		c7.409-20.14,11.166-41.321,11.166-62.952s-3.757-42.812-11.166-62.952c-1.905-5.184-7.654-7.84-12.837-5.933
		c-5.184,1.907-7.84,7.654-5.933,12.837c6.593,17.922,9.936,36.779,9.936,56.048s-3.343,38.125-9.936,56.048
		C360.931,262.961,363.587,268.708,368.771,270.615z"/>
	<path d="M175.862,152.951c-3.906-3.905-10.236-3.905-14.143,0c-3.905,3.905-3.905,10.237,0,14.142l34.638,34.638l-34.638,34.638
		c-3.905,3.905-3.905,10.237,0,14.142c1.953,1.953,4.512,2.929,7.071,2.929c2.559,0,5.119-0.977,7.071-2.929l34.638-34.638
		l34.638,34.638c1.953,1.953,4.512,2.929,7.071,2.929s5.118-0.976,7.071-2.929c3.905-3.905,3.905-10.237,0-14.142l-34.638-34.638
		l34.638-34.638c3.905-3.905,3.905-10.237,0-14.142c-3.905-3.905-10.237-3.905-14.143,0L210.5,187.589L175.862,152.951z"/>
</g>
<g>
</g>
<g>
</g>
<g>
</g>
<g>
</g>
<g>
</g>
<g>
</g>
<g>
</g>
<g>
</g>
<g>
</g>
<g>
</g>
<g>
</g>
<g>
</g>
<g>
</g>
<g>
</g>
<g>
</g>
</svg>
