<?xml version="1.0" encoding="iso-8859-1"?>
<!-- Generator: Adobe Illustrator 18.0.0, SVG Export Plug-In . SVG Version: 6.00 Build 0)  -->
<!DOCTYPE svg PUBLIC "-//W3C//DTD SVG 1.1//EN" "http://www.w3.org/Graphics/SVG/1.1/DTD/svg11.dtd">
<svg version="1.1" id="Capa_1" xmlns="http://www.w3.org/2000/svg" xmlns:xlink="http://www.w3.org/1999/xlink" x="0px" y="0px"
	 viewBox="0 0 419.955 419.955" style="enable-background:new 0 0 419.955 419.955;" xml:space="preserve">
	<style>
		path{fill: #fff };
	</style>
<g>
	<path d="M209.978,0C114.583,0,36.973,77.609,36.973,173.004l0,236.951c0,5.522,4.477,10,10,10c17.067,0,26.113-7.169,33.381-12.931
		c6.302-4.995,10.856-8.604,20.958-8.604s14.656,3.609,20.958,8.604c7.268,5.761,16.314,12.93,33.381,12.93
		c17.066,0,26.11-7.17,33.378-12.931c6.301-4.995,10.854-8.604,20.954-8.604c10.101,0,14.654,3.609,20.955,8.604
		c7.268,5.761,16.313,12.931,33.379,12.931c17.065,0,26.11-7.17,33.377-12.931c6.301-4.995,10.854-8.604,20.954-8.604
		s14.652,3.609,20.954,8.604c7.267,5.761,16.312,12.931,33.377,12.931c5.522,0,10-4.477,10-9.999l0.002-236.951
		C382.982,77.609,305.373,0,209.978,0z M362.981,398.336c-4.061-1.521-7.197-4.007-10.954-6.985
		c-7.267-5.761-16.312-12.931-33.377-12.931s-26.11,7.17-33.377,12.931c-6.301,4.995-10.854,8.604-20.954,8.604
		c-10.101,0-14.654-3.609-20.955-8.604c-7.268-5.761-16.313-12.931-33.379-12.931c-17.066,0-26.11,7.17-33.378,12.931
		c-6.301,4.995-10.854,8.604-20.954,8.604c-10.102,0-14.656-3.609-20.958-8.604c-7.268-5.761-16.314-12.931-33.381-12.931
		s-26.113,7.169-33.381,12.93c-3.759,2.979-6.896,5.466-10.958,6.987l0-225.333C56.973,88.638,125.61,20,209.978,20
		c84.367,0,153.004,68.638,153.004,153.004L362.981,398.336z"/>
	<path d="M129.915,122.743c-29.113,0-52.798,23.685-52.798,52.797s23.685,52.797,52.798,52.797s52.797-23.685,52.797-52.797
		S159.028,122.743,129.915,122.743z M129.915,208.338c-18.085,0-32.798-14.713-32.798-32.797s14.713-32.797,32.798-32.797
		c18.084,0,32.797,14.713,32.797,32.797S148,208.338,129.915,208.338z"/>
	<path d="M237.242,175.541c0,29.113,23.685,52.797,52.797,52.797c29.113,0,52.798-23.685,52.798-52.797
		s-23.685-52.797-52.798-52.797C260.927,122.743,237.242,146.428,237.242,175.541z M322.837,175.541
		c0,18.084-14.713,32.797-32.798,32.797c-18.084,0-32.797-14.713-32.797-32.797s14.713-32.797,32.797-32.797
		C308.125,142.743,322.837,157.456,322.837,175.541z"/>
</g>
<g>
</g>
<g>
</g>
<g>
</g>
<g>
</g>
<g>
</g>
<g>
</g>
<g>
</g>
<g>
</g>
<g>
</g>
<g>
</g>
<g>
</g>
<g>
</g>
<g>
</g>
<g>
</g>
<g>
</g>
</svg>
